<svg xmlns="http://www.w3.org/2000/svg" width="256" height="256" viewBox="0 0 64 64"><defs><linearGradient id="bg" x1="0" y1="0" x2="0" y2="1"><stop offset="0" stop-color="#22385E"/><stop offset="1" stop-color="#0E1829"/></linearGradient><clipPath id="sail"><path d="M17 10.5C23 12 35 12 41 10.5C45.5 17 46 25 42 31.5C35 30.5 23 30.5 17 31.5C19 24.5 19 17 17 10.5Z"/></clipPath></defs><rect width="64" height="64" rx="15" fill="url(#bg)"/><g transform="translate(32 33) scale(0.8) translate(-32 -32)"><path d="M19 40L12.5 54M26 40L19.5 54M33 40L26.5 54M40 40L33.5 54" stroke="#EADBB8" stroke-width="2.4" stroke-linecap="round"/><path d="M29 35V4" stroke="#EADBB8" stroke-width="2.5" stroke-linecap="round"/><path d="M29 4.2L37 6.6L29 9Z" fill="#D4AF4A"/><g clip-path="url(#sail)"><rect x="12" y="8" width="38" height="26" fill="#EADBB8"/><rect x="18.5" y="8" width="4.6" height="26" fill="#A5301F"/><rect x="27.7" y="8" width="4.6" height="26" fill="#A5301F"/><rect x="36.9" y="8" width="4.6" height="26" fill="#A5301F"/></g><path d="M14.5 10.5H43.5" stroke="#D4AF4A" stroke-width="2.5" stroke-linecap="round"/><path d="M3 25C5 31 8 34 13 35H49C52 34.5 55 33 57 31L55 38L62 41.5L50 44H18C10 44 5 37 3 25Z" fill="#D4AF4A"/></g></svg>
